<?xml version="1.0" encoding="UTF-8" standalone="no"?>
<!-- Created with Inkscape (http://www.inkscape.org/) -->

<svg
   xmlns:dc="http://purl.org/dc/elements/1.1/"
   xmlns:cc="http://creativecommons.org/ns#"
   xmlns:rdf="http://www.w3.org/1999/02/22-rdf-syntax-ns#"
   xmlns:svg="http://www.w3.org/2000/svg"
   xmlns="http://www.w3.org/2000/svg"
   xmlns:sodipodi="http://sodipodi.sourceforge.net/DTD/sodipodi-0.dtd"
   xmlns:inkscape="http://www.inkscape.org/namespaces/inkscape"
   width="744.09448819"
   height="1052.3622047"
   id="svg2"
   version="1.1"
   inkscape:version="0.48.3.1 r9886"
   sodipodi:docname="logo.svg"
   inkscape:export-filename="/home/jcd/proj/qmeshpack/images/logo.png"
   inkscape:export-xdpi="200"
   inkscape:export-ydpi="200">
  <defs
     id="defs4" />
  <sodipodi:namedview
     id="base"
     pagecolor="#ffffff"
     bordercolor="#666666"
     borderopacity="1.0"
     inkscape:pageopacity="0.0"
     inkscape:pageshadow="2"
     inkscape:zoom="1.4142136"
     inkscape:cx="243.90672"
     inkscape:cy="500.70308"
     inkscape:document-units="px"
     inkscape:current-layer="layer1"
     showgrid="false"
     inkscape:window-width="1920"
     inkscape:window-height="1009"
     inkscape:window-x="0"
     inkscape:window-y="25"
     inkscape:window-maximized="1" />
  <metadata
     id="metadata7">
    <rdf:RDF>
      <cc:Work
         rdf:about="">
        <dc:format>image/svg+xml</dc:format>
        <dc:type
           rdf:resource="http://purl.org/dc/dcmitype/StillImage" />
        <dc:title></dc:title>
      </cc:Work>
    </rdf:RDF>
  </metadata>
  <g
     inkscape:label="Layer 1"
     inkscape:groupmode="layer"
     id="layer1">
    <path
       style="fill:#00ff02;fill-opacity:1;stroke:#000000;stroke-width:0.84914154px;stroke-linecap:butt;stroke-linejoin:miter;stroke-opacity:1"
       d="m 290.46082,463.07169 c 98.72541,-35.67573 148.34612,-13.93288 218.33673,7.58794 0,0 -12.07348,30.971 -9.52637,49.79294 2.05188,15.16241 -5.07263,29.95396 25.75637,18.25699 26.22737,-9.95104 42.32464,46.14146 14.25932,48.99781 -32.13432,3.27047 -37.12912,-15.71346 -35.78218,15.80074 1.18833,27.80304 -3.23836,44.79294 -3.23836,44.79294 0,0 -4.63946,-0.30893 -35.93026,-4.82268 -39.33231,-5.67376 -42.02791,5.28464 -31.89866,26.79075 13.30529,28.24937 -68.17982,48.94401 -55.75668,6.30222 12.42314,-42.64178 3.72103,-38.81879 -48.12228,-30.21357 -39.42974,6.54475 -45.1882,0.87939 -45.1882,0.87939 -17.4593,-82.7481 -18.24026,-119.0207 7.09057,-184.16547 z"
       id="path3865-7-7"
       inkscape:connector-curvature="0"
       sodipodi:nodetypes="ccsssscsssscc" />
    <path
       style="fill:#0000ff;fill-opacity:1;stroke:#000000;stroke-width:0.91904849px;stroke-linecap:butt;stroke-linejoin:miter;stroke-opacity:1"
       d="m 291.3124,288.41004 c 0,0 12.59886,-3.11211 61.58159,2.31879 23.68189,2.6257 35.03899,-7.05438 21.2063,-45.4143 -12.73494,-35.3157 66.07184,-48.65362 59.34669,-12.76913 -6.72515,35.88449 -34.15545,57.68906 9.2934,58.57172 31.07596,0.6313 67.97588,-2.88893 67.97588,-2.88893 0,0 -6.5246,15.26465 -6.70988,43.9094 -0.19081,29.49774 0.16537,32.01218 27.23763,23.15723 35.12928,-11.4903 40.62678,55.63778 7.48056,41.25823 -24.53165,-10.64236 -42.53592,-16.75384 -31.23736,27.08172 10.00156,38.80352 1.14714,46.63197 1.14714,46.63197 0,0 -69.82152,-17.62214 -76.67155,-0.2831 -4.57372,11.57717 16.42753,24.11173 3.13493,36.4851 -32.91531,30.63907 -56.46631,-4.94593 -49.86505,-19.76261 11.25232,-25.25605 2.84834,-13.99451 -28.11133,-23.22734 -37.14033,-11.07603 -68.66571,-0.95451 -68.66571,-0.95451 l -3.25459,-144.70171 z"
       id="path3886"
       inkscape:connector-curvature="0"
       sodipodi:nodetypes="csssscsssscssssccc" />
    <path
       style="fill:#ffff00;fill-opacity:1;stroke:#000000;stroke-width:0.84914154px;stroke-linecap:butt;stroke-linejoin:miter;stroke-opacity:1"
       d="M 153.1875 458.78125 C 149.98651 458.90824 142.7514 459.91676 129.3125 459.84375 C 103.37928 459.70287 93.082738 459.37209 88.96875 459.15625 C 88.064428 459.19836 87.2218 459.23853 86.3125 459.28125 C 86.3125 459.28125 92.0157 488.78654 91.1875 521.65625 C 90.33252 555.58846 81.72195 529.27643 50.25 515.0625 C 18.778059 500.84857 2.6851403 564.46035 25.875 585.78125 C 58.682461 615.94462 78.07737 557.35943 85.53125 592.90625 C 91.34704 620.6412 78.90625 643.53125 78.90625 643.53125 C 78.90625 643.53125 82.000129 644.22037 121.96875 644.4375 C 164.97322 644.67112 144.32939 633.76447 131.90625 676.40625 C 119.48311 719.04804 164.20035 707.50855 191.53125 692.40625 C 218.86216 677.30395 174.9623 646.0607 201.46875 645.3125 C 232.9407 644.42413 283.46875 647.09375 283.46875 647.09375 C 283.46875 647.09375 273.96017 617.44097 283.53125 589.71875 C 293.85522 559.81583 302.67818 585.52047 334.8125 582.25 C 362.87782 579.39365 349.28987 519.79896 321.0625 523.25 C 288.33278 527.25149 288.88605 550.66519 281.25 537.40625 C 271.63182 520.70563 290.28125 462.59375 290.28125 462.59375 C 289.67124 462.52355 289.07669 462.47505 288.46875 462.40625 C 282.21206 462.08779 238.11431 459.92377 208.84375 460.75 C 182.3373 461.4982 226.23716 492.7102 198.90625 507.8125 C 171.57535 522.9148 126.82686 534.48554 139.25 491.84375 C 147.79091 462.52753 160.22968 458.50186 153.1875 458.78125 z "
       id="path3865-7" />
    <path
       style="fill:#ff0000;fill-opacity:1;stroke:#000000;stroke-width:0.84914154px;stroke-linecap:butt;stroke-linejoin:miter;stroke-opacity:1"
       d="m 91.504928,290.82828 c 0,0 32.769612,-3.04111 65.428522,-1.77675 20.46036,0.79211 -29.571,-30.39817 -1.65642,-54.19059 33.76586,-28.77964 67.91315,-27.53949 68.74136,1.77673 0.8282,29.31624 -39.75404,51.5255 2.48463,51.5255 46.20189,0 64.6003,0 64.6003,0 0,0 -11.82043,47.74919 -2.20225,64.44981 7.63605,13.25894 7.06218,-10.17655 39.7919,-14.17804 28.22737,-3.45104 41.82464,56.14146 13.75932,58.99781 -32.13432,3.27047 -40.94349,-22.43061 -51.26746,7.47231 -9.57108,27.72222 -0.0815,57.37873 -0.0815,57.37873 0,0 -50.52076,-2.66511 -81.99271,-1.77674 -26.50645,0.7482 17.3924,31.98134 -9.93851,47.08364 -27.3309,15.1023 -72.05419,26.65112 -59.63105,-15.99067 12.42314,-42.64178 33.06596,-31.74772 -9.93851,-31.98134 -39.968632,-0.21713 -43.066872,-0.88837 -43.066872,-0.88837 0,0 12.44146,-22.90217 6.62567,-50.63712 -7.453881,-35.54682 -26.823601,23.05642 -59.631061,-7.10695 -23.18985,-21.3209 -7.12785,-84.95413 24.3441,-70.7402 31.471951,14.21393 41.703921,40.70972 42.558903,6.77751 0.8282,-32.86972 -8.928362,-46.19527 -8.928362,-46.19527 z"
       id="path3865-5-4"
       inkscape:connector-curvature="0"
       sodipodi:nodetypes="csssscsssscsssscssssc" />
  </g>
</svg>
